# xmcd
#
# Track frame offsets:
#	150
#	17775
#	38231
#	60843
#	75333
#	96820
#	111653
#	129765
#	152040
#	174540
#	191790
#	210277
#
# Disc length: 3030 seconds
#
# Revision: 1
# Processed by: cddbd v1.5.2PL0 Copyright (c) Steve Scherf et al.
# Submitted via: audiograbber 1.83.01
#
DISCID=900bd40c
DTITLE=Dennis Schütze and his Elelctric Combo - Electric Country Soul
DYEAR=2013
DGENRE=Country
TTITLE0=Nine to five
TTITLE1=Upon Cripple Creek
TTITLE2=Oh my sweet Carolina
TTITLE3=Workin at the Carwash Blues
TTITLE4=City of New Orleans
TTITLE5=I´, so lonesome I could cry
TTITLE6=When I paint my Masterpiece
TTITLE7=Just Fine
TTITLE8=Manic Depression
TTITLE9=Shining all along
TTITLE10=Jet Airliner
TTITLE11=Lucky Old Sun
EXTD=
EXTT0=
EXTT1=
EXTT2=
EXTT3=
EXTT4=
EXTT5=
EXTT6=
EXTT7=
EXTT8=
EXTT9=
EXTT10=
EXTT11=
PLAYORDER=
